<svg id="Layer_1" data-name="Layer 1" xmlns="http://www.w3.org/2000/svg" viewBox="0 0 32.58 31.77"><defs><style>.cls-1{fill:#0f0c0d;fill-rule:evenodd;}</style></defs><path class="cls-1" d="M16.46.11a16.29,16.29,0,0,0-5.15,31.75c.81.15,1.11-.35,1.11-.78s0-1.42,0-2.78c-4.53,1-5.49-2.18-5.49-2.18A4.3,4.3,0,0,0,5.1,23.74c-1.48-1,.11-1,.11-1a3.41,3.41,0,0,1,2.5,1.68,3.46,3.46,0,0,0,4.74,1.35,3.54,3.54,0,0,1,1-2.18c-3.61-.41-7.42-1.81-7.42-8a6.3,6.3,0,0,1,1.68-4.37A5.82,5.82,0,0,1,7.9,6.87s1.37-.44,4.48,1.67a15.41,15.41,0,0,1,8.16,0C23.65,6.43,25,6.87,25,6.87a5.82,5.82,0,0,1,.16,4.31,6.26,6.26,0,0,1,1.68,4.37c0,6.26-3.81,7.64-7.44,8a3.91,3.91,0,0,1,1.11,3c0,2.17,0,3.93,0,4.47s.29.94,1.12.78A16.3,16.3,0,0,0,16.46.11Z" transform="translate(-0.17 -0.11)"/></svg>