<?xml version="1.0" encoding="utf-8"?>
<!-- Generator: Adobe Illustrator 25.2.0, SVG Export Plug-In . SVG Version: 6.00 Build 0)  -->
<svg version="1.1" id="Layer_1" xmlns="http://www.w3.org/2000/svg" xmlns:xlink="http://www.w3.org/1999/xlink" x="0px" y="0px"
	 viewBox="0 0 16 16" style="enable-background:new 0 0 16 16;" xml:space="preserve">
<style type="text/css">
	.st0{stroke:#000000;stroke-width:0.5;stroke-miterlimit:10;}
</style>
<path class="st0" d="M15.5,7.3c-0.4-1.2-1.2-2.1-2.1-2.7l1.1-1.9l-2.2-1.3l0,0L11.4,1l0,0L5.5,11.7l-1.2,2.1L2.9,13l1.1-1.9
	l-0.5-0.2c-1-0.5-1.7-1.4-2.1-2.5C1.1,7.1,1.2,5.8,2,4.6l0,0c0.6-1.2,1.5-2,2.8-2.4C5.9,1.9,7,2.1,8,2.7l0.4,0.2L8.9,2L8,1.6
	C6.9,1.1,5.7,1,4.5,1.2C3.1,1.7,1.8,2.8,1.1,4.1v0.1C0.4,5.5,0.1,7.1,0.5,8.7c0.4,1.2,1.2,2.1,2.1,2.7l-1.1,1.9l2.2,1.3l0,0L4.6,15
	l0,0l5.9-10.7l1.2-2.1L13.1,3l-1.1,1.9l0.5,0.2c1,0.5,1.7,1.4,2.1,2.4c0.3,1.3,0.1,2.6-0.6,3.8l0,0c-0.6,1.2-1.5,2-2.8,2.4
	C10.1,14.1,9,13.9,8,13.3l-0.4-0.2L7.1,14C7.6,14.2,8,14.4,8,14.4c1.1,0.5,2.3,0.6,3.5,0.4c1.4-0.5,2.7-1.5,3.4-2.9v-0.1
	C15.6,10.4,15.9,8.8,15.5,7.3z"/>
</svg>
